name rise44.8762peak52.3436fall86.788.mot
datacolumns 19
datarows 36
range 22.83658200000000 22.89491300000000
endheader
time	ground_force1_vx	ground_force1_vy	ground_force1_vz	ground_force1_px	ground_force1_py	ground_force1_pz	ground_force2_vx	ground_force2_vy	ground_force2_vz	ground_force2_px	ground_force2_py	ground_force2_pz	ground_torque1_x	ground_torque1_y	ground_torque1_z	ground_torque2_x	ground_torque2_y	ground_torque2_z	
22.83658200000000	12.22125600000000	687.96754699999997	41.37452800000000	0.22757900000000	0.00000000000000	0.09490800000000	0.00000000000000	0.00000000000000	0.00000000000000	0.00000000000000	0.00000000000000	0.00000000000000	0.00000000000000	15.88033200000000	0.00000000000000	0.00000000000000	0.00000000000000	0.00000000000000	
22.83824700000000	11.92354800000000	688.31661699999995	41.39086500000000	0.22676300000000	0.00000000000000	0.09485600000000	0.00000000000000	0.00000000000000	0.00000000000000	0.00000000000000	0.00000000000000	0.00000000000000	0.00000000000000	15.91769100000000	0.00000000000000	0.00000000000000	0.00000000000000	0.00000000000000	
22.83990800000000	11.62062600000000	688.71068400000001	41.41024900000000	0.22593400000000	0.00000000000000	0.09480500000000	0.00000000000000	0.00000000000000	0.00000000000000	0.00000000000000	0.00000000000000	0.00000000000000	0.00000000000000	15.95817400000000	0.00000000000000	0.00000000000000	0.00000000000000	0.00000000000000	
22.84157500000000	11.31214400000000	689.14970600000004	41.43233300000000	0.22509200000000	0.00000000000000	0.09475400000000	0.00000000000000	0.00000000000000	0.00000000000000	0.00000000000000	0.00000000000000	0.00000000000000	0.00000000000000	16.00168500000000	0.00000000000000	0.00000000000000	0.00000000000000	0.00000000000000	
22.84324100000000	10.99778200000000	689.63366599999995	41.45677700000000	0.22423900000000	0.00000000000000	0.09470200000000	0.00000000000000	0.00000000000000	0.00000000000000	0.00000000000000	0.00000000000000	0.00000000000000	0.00000000000000	16.04812800000000	0.00000000000000	0.00000000000000	0.00000000000000	0.00000000000000	
22.84491300000000	10.67723700000000	690.16257399999995	41.48325000000000	0.22337300000000	0.00000000000000	0.09465100000000	0.00000000000000	0.00000000000000	0.00000000000000	0.00000000000000	0.00000000000000	0.00000000000000	0.00000000000000	16.09740800000000	0.00000000000000	0.00000000000000	0.00000000000000	0.00000000000000	
22.84659300000000	10.35023200000000	690.73646499999995	41.51143700000000	0.22249500000000	0.00000000000000	0.09460000000000	0.00000000000000	0.00000000000000	0.00000000000000	0.00000000000000	0.00000000000000	0.00000000000000	0.00000000000000	16.14943400000000	0.00000000000000	0.00000000000000	0.00000000000000	0.00000000000000	
22.84824300000000	10.01651300000000	691.35539400000005	41.54103100000000	0.22160600000000	0.00000000000000	0.09454900000000	0.00000000000000	0.00000000000000	0.00000000000000	0.00000000000000	0.00000000000000	0.00000000000000	0.00000000000000	16.20411400000000	0.00000000000000	0.00000000000000	0.00000000000000	0.00000000000000	
22.84991500000000	9.67584800000000	692.01943500000004	41.57174400000000	0.22070500000000	0.00000000000000	0.09449700000000	0.00000000000000	0.00000000000000	0.00000000000000	0.00000000000000	0.00000000000000	0.00000000000000	0.00000000000000	16.26135800000000	0.00000000000000	0.00000000000000	0.00000000000000	0.00000000000000	
22.85157600000000	9.32803300000000	692.72867900000006	41.60330100000000	0.21979300000000	0.00000000000000	0.09444600000000	0.00000000000000	0.00000000000000	0.00000000000000	0.00000000000000	0.00000000000000	0.00000000000000	0.00000000000000	16.32107900000000	0.00000000000000	0.00000000000000	0.00000000000000	0.00000000000000	
22.85324200000000	8.97288700000000	693.48323000000005	41.63544600000000	0.21887000000000	0.00000000000000	0.09439500000000	0.00000000000000	0.00000000000000	0.00000000000000	0.00000000000000	0.00000000000000	0.00000000000000	0.00000000000000	16.38319100000000	0.00000000000000	0.00000000000000	0.00000000000000	0.00000000000000	
22.85491300000000	8.61025900000000	694.28319999999997	41.66794000000000	0.21793800000000	0.00000000000000	0.09434300000000	0.00000000000000	0.00000000000000	0.00000000000000	0.00000000000000	0.00000000000000	0.00000000000000	0.00000000000000	16.44761000000000	0.00000000000000	0.00000000000000	0.00000000000000	0.00000000000000	
22.85658200000000	8.24002200000000	695.12870599999997	41.70056700000000	0.21699600000000	0.00000000000000	0.09429200000000	0.00000000000000	0.00000000000000	0.00000000000000	0.00000000000000	0.00000000000000	0.00000000000000	0.00000000000000	16.51425500000000	0.00000000000000	0.00000000000000	0.00000000000000	0.00000000000000	
22.85824600000000	7.86207600000000	696.01986799999997	41.73312800000000	0.21604500000000	0.00000000000000	0.09424000000000	0.00000000000000	0.00000000000000	0.00000000000000	0.00000000000000	0.00000000000000	0.00000000000000	0.00000000000000	16.58304500000000	0.00000000000000	0.00000000000000	0.00000000000000	0.00000000000000	
22.85990800000000	7.47635000000000	696.95680000000004	41.76544900000000	0.21508600000000	0.00000000000000	0.09418900000000	0.00000000000000	0.00000000000000	0.00000000000000	0.00000000000000	0.00000000000000	0.00000000000000	0.00000000000000	16.65390200000000	0.00000000000000	0.00000000000000	0.00000000000000	0.00000000000000	
22.86157700000000	7.08279700000000	697.93960800000002	41.79737600000000	0.21411900000000	0.00000000000000	0.09413700000000	0.00000000000000	0.00000000000000	0.00000000000000	0.00000000000000	0.00000000000000	0.00000000000000	0.00000000000000	16.72675000000000	0.00000000000000	0.00000000000000	0.00000000000000	0.00000000000000	
22.86324900000000	6.68140200000000	698.96838500000001	41.82878100000000	0.21314600000000	0.00000000000000	0.09408500000000	0.00000000000000	0.00000000000000	0.00000000000000	0.00000000000000	0.00000000000000	0.00000000000000	0.00000000000000	16.80151500000000	0.00000000000000	0.00000000000000	0.00000000000000	0.00000000000000	
22.86491200000000	6.27217400000000	700.04320499999994	41.85955900000000	0.21216700000000	0.00000000000000	0.09403300000000	0.00000000000000	0.00000000000000	0.00000000000000	0.00000000000000	0.00000000000000	0.00000000000000	0.00000000000000	16.87812200000000	0.00000000000000	0.00000000000000	0.00000000000000	0.00000000000000	
22.86657800000000	5.85515000000000	701.16411900000003	41.88963100000000	0.21118300000000	0.00000000000000	0.09398100000000	0.00000000000000	0.00000000000000	0.00000000000000	0.00000000000000	0.00000000000000	0.00000000000000	0.00000000000000	16.95650000000000	0.00000000000000	0.00000000000000	0.00000000000000	0.00000000000000	
22.86824500000000	5.43039300000000	702.33114499999999	41.91894200000000	0.21019400000000	0.00000000000000	0.09392900000000	0.00000000000000	0.00000000000000	0.00000000000000	0.00000000000000	0.00000000000000	0.00000000000000	0.00000000000000	17.03657800000000	0.00000000000000	0.00000000000000	0.00000000000000	0.00000000000000	
22.86990900000000	4.99799600000000	703.54426899999999	41.94746400000000	0.20920200000000	0.00000000000000	0.09387700000000	0.00000000000000	0.00000000000000	0.00000000000000	0.00000000000000	0.00000000000000	0.00000000000000	0.00000000000000	17.11828600000000	0.00000000000000	0.00000000000000	0.00000000000000	0.00000000000000	
22.87158100000000	4.55807200000000	704.80343500000004	41.97519500000000	0.20820800000000	0.00000000000000	0.09382500000000	0.00000000000000	0.00000000000000	0.00000000000000	0.00000000000000	0.00000000000000	0.00000000000000	0.00000000000000	17.20155400000000	0.00000000000000	0.00000000000000	0.00000000000000	0.00000000000000	
22.87324700000000	4.11076600000000	706.10853799999995	42.00215900000000	0.20721100000000	0.00000000000000	0.09377300000000	0.00000000000000	0.00000000000000	0.00000000000000	0.00000000000000	0.00000000000000	0.00000000000000	0.00000000000000	17.28631300000000	0.00000000000000	0.00000000000000	0.00000000000000	0.00000000000000	
22.87491600000000	3.65624200000000	707.45942400000001	42.02840600000000	0.20621400000000	0.00000000000000	0.09372100000000	0.00000000000000	0.00000000000000	0.00000000000000	0.00000000000000	0.00000000000000	0.00000000000000	0.00000000000000	17.37249500000000	0.00000000000000	0.00000000000000	0.00000000000000	0.00000000000000	
22.87657400000000	3.19469200000000	708.85587799999996	42.05401200000000	0.20521600000000	0.00000000000000	0.09366800000000	0.00000000000000	0.00000000000000	0.00000000000000	0.00000000000000	0.00000000000000	0.00000000000000	0.00000000000000	17.46003000000000	0.00000000000000	0.00000000000000	0.00000000000000	0.00000000000000	
22.87824400000000	2.72633100000000	710.29762300000004	42.07908100000000	0.20421900000000	0.00000000000000	0.09361600000000	0.00000000000000	0.00000000000000	0.00000000000000	0.00000000000000	0.00000000000000	0.00000000000000	0.00000000000000	17.54885100000000	0.00000000000000	0.00000000000000	0.00000000000000	0.00000000000000	
22.87991400000000	2.25139300000000	711.78430900000001	42.10374000000000	0.20322300000000	0.00000000000000	0.09356400000000	0.00000000000000	0.00000000000000	0.00000000000000	0.00000000000000	0.00000000000000	0.00000000000000	0.00000000000000	17.63888700000000	0.00000000000000	0.00000000000000	0.00000000000000	0.00000000000000	
22.88157500000000	1.77013600000000	713.31551600000000	42.12814200000000	0.20222900000000	0.00000000000000	0.09351200000000	0.00000000000000	0.00000000000000	0.00000000000000	0.00000000000000	0.00000000000000	0.00000000000000	0.00000000000000	17.73006900000000	0.00000000000000	0.00000000000000	0.00000000000000	0.00000000000000	
22.88324600000000	1.28283900000000	714.89074000000005	42.15246600000000	0.20123800000000	0.00000000000000	0.09346100000000	0.00000000000000	0.00000000000000	0.00000000000000	0.00000000000000	0.00000000000000	0.00000000000000	0.00000000000000	17.82232600000000	0.00000000000000	0.00000000000000	0.00000000000000	0.00000000000000	
22.88491500000000	0.78979900000000	716.50939500000004	42.17691200000000	0.20025000000000	0.00000000000000	0.09340900000000	0.00000000000000	0.00000000000000	0.00000000000000	0.00000000000000	0.00000000000000	0.00000000000000	0.00000000000000	17.91558700000000	0.00000000000000	0.00000000000000	0.00000000000000	0.00000000000000	
22.88658200000000	0.29133000000000	718.17080199999998	42.20170500000000	0.19926600000000	0.00000000000000	0.09335800000000	0.00000000000000	0.00000000000000	0.00000000000000	0.00000000000000	0.00000000000000	0.00000000000000	0.00000000000000	18.00977700000000	0.00000000000000	0.00000000000000	0.00000000000000	0.00000000000000	
22.88824300000000	-0.21223600000000	719.87419100000000	42.22709100000000	0.19828600000000	0.00000000000000	0.09330700000000	0.00000000000000	0.00000000000000	0.00000000000000	0.00000000000000	0.00000000000000	0.00000000000000	0.00000000000000	18.10482400000000	0.00000000000000	0.00000000000000	0.00000000000000	0.00000000000000	
22.88990700000000	-0.72055200000000	721.61869200000001	42.25333700000000	0.19731100000000	0.00000000000000	0.09325700000000	0.00000000000000	0.00000000000000	0.00000000000000	0.00000000000000	0.00000000000000	0.00000000000000	0.00000000000000	18.20065200000000	0.00000000000000	0.00000000000000	0.00000000000000	0.00000000000000	
22.89157900000000	-1.23325700000000	723.40333199999998	42.28072900000000	0.19634100000000	0.00000000000000	0.09320600000000	0.00000000000000	0.00000000000000	0.00000000000000	0.00000000000000	0.00000000000000	0.00000000000000	0.00000000000000	18.29718400000000	0.00000000000000	0.00000000000000	0.00000000000000	0.00000000000000	
22.89324600000000	-1.74997800000000	725.22703500000000	42.30957300000000	0.19537700000000	0.00000000000000	0.09315700000000	0.00000000000000	0.00000000000000	0.00000000000000	0.00000000000000	0.00000000000000	0.00000000000000	0.00000000000000	18.39434000000000	0.00000000000000	0.00000000000000	0.00000000000000	0.00000000000000	
22.89491300000000	-2.27033100000000	727.08861500000000	42.34018900000000	0.19441900000000	0.00000000000000	0.09310800000000	0.00000000000000	0.00000000000000	0.00000000000000	0.00000000000000	0.00000000000000	0.00000000000000	0.00000000000000	18.49204000000000	0.00000000000000	0.00000000000000	0.00000000000000	0.00000000000000	
